<svg width="78" height="78" viewBox="0 0 78 78" fill="none" xmlns="http://www.w3.org/2000/svg">
<path d="M51.3147 8.34913C51.1881 8.25254 50.0157 7.38037 47.9272 6.54111C45.2367 5.45978 42.1494 4.88818 38.9994 4.88818C35.8494 4.88818 32.7623 5.45978 30.0714 6.54111C27.9831 7.38037 26.8107 8.25254 26.6839 8.34928C26.048 8.83419 25.6748 9.58814 25.6748 10.3878V14.4098L28.2383 15.7809L30.8019 14.4098V11.8395C32.2088 11.1215 35.0223 10.0152 38.9992 10.0152C42.9763 10.0152 45.7897 11.1215 47.1966 11.8395V14.4097L49.76 15.7808L52.3237 14.4097V10.3878C52.324 9.58799 51.9507 8.83404 51.3147 8.34913Z" fill="#FF8941"/>
<path d="M25.6748 14.4097V17.2402L28.2384 18.6113L30.8021 17.2402V14.4097H25.6748Z" fill="#D66E41"/>
<path d="M52.3239 14.4097H47.1968V17.2402L49.7604 18.6113L52.3239 17.2402V14.4097Z" fill="#D66E41"/>
<path d="M2.01807 45.4419V68.2161C2.01807 70.9197 4.20984 73.1115 6.91348 73.1115H71.0865C73.7901 73.1115 75.9819 70.9197 75.9819 68.2161V45.4419H2.01807Z" fill="#1D6392"/>
<path d="M2.01807 42.611V45.4417C6.08503 48.6708 16.8338 54.9393 39 54.9393C61.1661 54.9393 71.9149 48.6708 75.9819 45.4415V42.6108H2.01807V42.611Z" fill="#2B4D66"/>
<path d="M1.80558 40.9809C5.70329 44.1542 16.4371 50.6492 39 50.6492C61.5629 50.6492 72.2966 44.1542 76.1944 40.9809C77.337 40.0507 78 37.2856 78 35.8123V22.1356C78 19.432 75.8082 17.2402 73.1046 17.2402H4.89541C2.19177 17.2402 0 19.432 0 22.1356V35.8123C0 37.2856 0.663 40.0507 1.80558 40.9809Z" fill="#1D6392"/>
<path d="M76.1944 39.61C72.2967 42.7833 61.5629 49.2783 39 49.2783C16.4371 49.2783 5.70345 42.7831 1.80558 39.61C0.663 38.6798 0 37.2858 0 35.8125V38.6432C0 40.1165 0.663 41.5105 1.80558 42.4407C5.70329 45.614 16.4371 52.109 39 52.109C61.5629 52.109 72.2966 45.614 76.1944 42.4407C77.337 41.5105 78 40.1165 78 38.6432V35.8125C78 37.2858 77.337 38.6798 76.1944 39.61Z" fill="#1D6392"/>
<path d="M38.9996 56.8198C41.5322 56.8198 43.5852 54.9393 43.5852 50.8632V48.0829C43.5852 47.1817 42.8545 46.4512 41.9534 46.4512H36.0458C35.1446 46.4512 34.4141 47.1818 34.4141 48.0829V50.8637C34.4139 54.9393 36.467 56.8198 38.9996 56.8198Z" fill="#FF8941"/>
<path d="M38.9996 55.4488C36.467 55.4488 34.4141 53.3958 34.4141 50.8633V53.694C34.4141 56.2265 36.467 58.2795 38.9996 58.2795C41.5322 58.2795 43.5852 56.2265 43.5852 53.694V50.8633C43.5852 53.3957 41.5322 55.4488 38.9996 55.4488Z" fill="#D66E41"/>
</svg>
