<svg width="83" height="83" viewBox="0 0 83 83" fill="none" xmlns="http://www.w3.org/2000/svg">
<path d="M16.8594 57.0703C17.5182 48.3618 24.7924 41.5 33.6708 41.5H34.9676H47.9844H49.2812C58.1584 41.5 65.4338 48.3618 66.0926 57.0703H16.8594Z" fill="#FF8941"/>
<path d="M47.9844 41.5V37.6094H35.0156V41.5" fill="#F9D296"/>
<path d="M41.5 10.375C41.5 14.6728 38.0166 18.1562 33.7188 18.1562H27.2344V27.2344C27.2344 35.1129 33.6215 41.5 41.5 41.5C49.3785 41.5 55.7656 35.1129 55.7656 27.2344V18.1562H49.2812C44.9834 18.1562 41.5 14.6728 41.5 10.375Z" fill="#F9D296"/>
<path d="M35.0156 41.5L41.5 47.9844L47.9844 41.5H35.0156Z" fill="#F9D296"/>
<path d="M31.125 23.3438H38.9062V28.5312H31.125V23.3438Z" fill="#EBF7FE"/>
<path d="M44.0938 23.3438H51.875V28.5312H44.0938V23.3438Z" fill="#EBF7FE"/>
<path d="M27.2344 27.2344V23.3438H25.9375C23.7886 23.3438 22.0469 25.0855 22.0469 27.2344C22.0469 29.3833 23.7886 31.125 25.9375 31.125H27.7855C27.4341 29.8865 27.2344 28.5844 27.2344 27.2344Z" fill="#F9D296"/>
<path d="M57.0629 23.3438H55.766V27.2344C55.766 28.5844 55.5663 29.8865 55.2148 31.125H57.0629C59.2118 31.125 60.9535 29.3833 60.9535 27.2344C60.9535 25.0855 59.2118 23.3438 57.0629 23.3438Z" fill="#F9D296"/>
<path d="M52.8075 2.59375C51.3809 2.59375 50.0114 3.16048 49.0024 4.16945L47.9844 5.1875L46.9663 4.16945C45.9574 3.16048 44.5892 2.59375 43.1613 2.59375H32.0004C26.5042 2.59375 22.0469 7.05111 22.0469 12.5486C22.0469 14.5133 22.6292 16.4353 23.7185 18.0707L27.2344 23.3438V18.1562H33.7188C38.0166 18.1562 41.5 14.6728 41.5 10.375C41.5 14.6728 44.9834 18.1562 49.2812 18.1562H55.7656V23.3438L58.2777 19.575C60.022 16.9592 60.9531 13.8843 60.9531 10.7394C60.9531 6.24056 57.3063 2.59375 52.8075 2.59375Z" fill="#C18E5C"/>
<path d="M49.2816 57.0625L54.4691 53.1719L47.9847 41.5L43.8892 57.0625H49.2816Z" fill="#88929F"/>
<path d="M44.0938 22.0469C43.3779 22.0469 42.7969 22.6279 42.7969 23.3438V24.6406H40.2031V23.3438C40.2031 22.6279 39.6221 22.0469 38.9062 22.0469H27.2344V24.6406H29.8281V28.5312C29.8281 29.2471 30.4091 29.8281 31.125 29.8281H38.9062C39.6221 29.8281 40.2031 29.2471 40.2031 28.5312V27.2344H42.7969V28.5312C42.7969 29.2471 43.3779 29.8281 44.0938 29.8281H51.875C52.5909 29.8281 53.1719 29.2471 53.1719 28.5312V24.6406H55.7656V22.0469H44.0938ZM37.6094 27.2344H32.4219V24.6406H37.6094V27.2344ZM50.5781 27.2344H45.3906V24.6406H50.5781V27.2344Z" fill="#1D6392"/>
<path d="M41.5 35.0156C40.0695 35.0156 38.9062 33.8523 38.9062 32.4219H36.3125C36.3125 35.2828 38.6391 37.6094 41.5 37.6094C44.3609 37.6094 46.6875 35.2828 46.6875 32.4219H44.0938C44.0938 33.8523 42.9305 35.0156 41.5 35.0156Z" fill="#CDA57D"/>
<path d="M4.72217 57.0625H78.7438V79.269H4.72217V57.0625Z" fill="#1D6392"/>
<path d="M39.2658 65.6984L41.7332 60.7637L44.2006 65.6984L49.1354 66.9321L45.4343 69.3995L46.668 75.568L41.7332 71.8669L36.7984 75.568L38.0321 69.3995L34.3311 66.9321L39.2658 65.6984Z" fill="white"/>
<path d="M59.0046 65.6984L61.472 60.7637L63.9394 65.6984L68.8742 66.9321L65.1731 69.3995L66.4068 75.568L61.472 71.8669L56.5372 75.568L57.7709 69.3995L54.0698 66.9321L59.0046 65.6984Z" fill="white"/>
<path d="M19.5266 65.6984L21.994 60.7637L24.4613 65.6984L29.3961 66.9321L25.695 69.3995L26.9287 75.568L21.994 71.8669L17.0592 75.568L18.2929 69.3995L14.5918 66.9321L19.5266 65.6984Z" fill="white"/>
<path d="M33.7188 57.0625L28.5312 53.1719L35.0156 41.5L39.1112 57.0625H33.7188Z" fill="#88929F"/>
</svg>
