<svg width="65" height="77" viewBox="0 0 65 77" fill="none" xmlns="http://www.w3.org/2000/svg">
<path d="M33.0434 18.2214C25.5981 18.2408 19.5564 24.1725 19.5762 31.4444C19.5961 38.7164 25.67 44.6166 33.1154 44.5972C40.5614 44.5778 46.603 38.6461 46.5832 31.3742C46.5634 24.1022 40.4894 18.202 33.0434 18.2214Z" fill="#AEDEE9"/>
<path d="M16.6312 47.124L24.8318 49.2698L25.9435 49.5608L34.144 51.7067L27.5444 75.761C27.4309 76.1748 26.9049 76.317 26.5893 76.0208L20.2893 70.0977C20.0044 69.8296 19.5984 69.7238 19.2143 69.8161L10.7261 71.8692C10.3008 71.9721 9.91844 71.5912 10.0319 71.178L16.6312 47.124Z" fill="#FF8941"/>
<path d="M48.3711 47.124L40.1706 49.2698L39.0589 49.5608L30.8584 51.7067L37.458 75.7609C37.5715 76.1741 38.0975 76.317 38.413 76.0201L44.7131 70.097C44.9979 69.8296 45.404 69.7232 45.788 69.8161L54.2763 71.8686C54.7015 71.9715 55.084 71.5912 54.9705 71.178L48.3711 47.124Z" fill="#FF8941"/>
<path d="M26.9835 76.8031C26.6746 76.8031 26.3764 76.6879 26.1452 76.4704L19.8451 70.5473C19.7176 70.4274 19.5388 70.3804 19.3678 70.4227L10.8792 72.4758C10.4565 72.5769 10.0236 72.4576 9.71951 72.1543C9.41545 71.8516 9.30098 71.4266 9.41353 71.0164L16.0131 46.9626C16.1043 46.6294 16.455 46.4305 16.7961 46.521L34.3089 51.1037C34.4726 51.1465 34.6123 51.2515 34.6971 51.3948C34.7818 51.5381 34.8049 51.7086 34.7611 51.8688L28.1614 75.9232C28.0488 76.3335 27.7317 76.6456 27.3131 76.7596C27.2038 76.789 27.0929 76.8031 26.9835 76.8031ZM19.4944 69.1584C19.9506 69.1584 20.3929 69.3288 20.7318 69.6474L26.9541 75.497L33.3599 52.1483L17.0826 47.8887L10.6768 71.2374L19.0599 69.2101C19.2044 69.1754 19.3502 69.1584 19.4944 69.1584Z" fill="#FF8941"/>
<path d="M38.0182 76.8031C37.9085 76.8031 37.7979 76.7884 37.6882 76.759C37.2693 76.645 36.9525 76.3329 36.8403 75.9226L30.2406 51.8681C30.1965 51.708 30.2198 51.5375 30.3046 51.3941C30.3893 51.2508 30.529 51.1459 30.6927 51.1031L48.2055 46.5203C48.546 46.4298 48.8974 46.6287 48.9885 46.9619L55.5882 71.0157C55.7007 71.4254 55.5863 71.851 55.2822 72.1537C54.9785 72.4576 54.5449 72.5769 54.1228 72.4746L45.6342 70.4221C45.4628 70.3804 45.2841 70.4274 45.1565 70.5473L38.8565 76.4698C38.6253 76.6879 38.327 76.8031 38.0182 76.8031ZM31.6414 52.1482L38.0472 75.497L44.2693 69.648C44.7156 69.2283 45.341 69.0643 45.9415 69.2101L54.3245 71.2379L47.9187 47.889L31.6414 52.1482Z" fill="#FF8941"/>
<path d="M24.8384 4.0481L24.8537 9.68127C23.4929 10.101 22.1657 10.6434 20.9027 11.2966L16.8098 7.32061C16.2586 6.78508 15.5264 6.49095 14.7488 6.49312C13.9712 6.495 13.241 6.79319 12.6926 7.33154L6.80154 13.1155C6.25319 13.6539 5.95231 14.369 5.95455 15.1284C5.95647 15.8875 6.26149 16.6007 6.81273 17.1362L10.9056 21.1122C10.2435 22.3491 9.69482 23.6484 9.27274 24.9793L3.50507 24.9943C1.89969 24.9983 0.597414 26.2771 0.601572 27.8449L0.623949 36.0033C0.628108 37.5713 1.93774 38.8431 3.5428 38.839L9.31047 38.824C9.7399 40.1524 10.2956 41.4486 10.9645 42.6827L6.89332 46.6799C6.34497 47.2182 6.0441 47.9333 6.04633 48.6924C6.04826 49.4518 6.35328 50.1653 6.90445 50.7009L12.8269 56.4543C13.3785 56.9898 14.1103 57.284 14.8879 57.2818C15.6655 57.2799 16.3961 56.9817 16.9441 56.4434L21.0153 52.4461C22.2818 53.0928 23.6122 53.6281 24.9749 54.0409L24.9902 59.6739C24.9944 61.2421 26.304 62.514 27.9091 62.5099L36.2628 62.4876C37.8678 62.4841 39.1704 61.205 39.1662 59.6374L39.1509 54.004C40.5117 53.5843 41.8389 53.0419 43.1019 52.3887L47.1948 56.3647C47.746 56.9002 48.4778 57.1944 49.2554 57.1922C50.033 57.19 50.7636 56.8921 51.3117 56.3537L57.2031 50.5697C57.7514 50.0314 58.0523 49.3164 58.0501 48.5569C58.0478 47.7978 57.7431 47.0846 57.1919 46.5491L53.099 42.573C53.7611 41.3362 54.3098 40.0369 54.7319 38.706L60.4997 38.691C62.1048 38.6869 63.4072 37.4082 63.403 35.8404L63.3807 27.6819C63.3765 26.1141 62.0669 24.8422 60.4617 24.8463L54.6941 24.8613C54.2647 23.5329 53.7087 22.2367 53.0401 21.0026L57.1113 17.0054C57.6596 16.467 57.9605 15.752 57.9583 14.9929C57.9563 14.2334 57.6513 13.5199 57.1001 12.9844L51.1774 7.23097C50.6262 6.69544 49.8943 6.40131 49.1163 6.40348C48.3388 6.40537 47.6085 6.70355 47.0602 7.2419L42.989 11.2391C41.7225 10.5925 40.3921 10.0573 39.0294 9.64442L39.0141 4.01125C39.0099 2.44339 37.7003 1.17155 36.0952 1.17561L27.7415 1.19746C26.1364 1.20152 24.8339 2.48023 24.8384 4.0481ZM31.9649 18.1904C39.6727 18.1704 45.9603 24.2783 45.9811 31.806C46.0015 39.334 39.7475 45.4743 32.0397 45.4946C24.3319 45.5146 18.0443 39.4067 18.0235 31.879C18.0028 24.3514 24.257 18.2107 31.9649 18.1904Z" fill="#2172A7"/>
<path d="M28.3992 62.6933C27.4557 62.6933 26.5675 62.3348 25.8967 61.6829C25.2237 61.0293 24.8515 60.1599 24.8493 59.2348L24.8352 54.0559C23.7414 53.7018 22.6696 53.2699 21.6385 52.7688L17.896 56.4431C17.2271 57.1001 16.3367 57.463 15.3881 57.4655C15.3852 57.4655 15.3823 57.4655 15.3794 57.4655C14.4339 57.4655 13.5451 57.1073 12.8746 56.4562L6.95153 50.7028C6.27914 50.0495 5.9076 49.1796 5.90504 48.2532C5.90248 47.3273 6.26921 46.4555 6.93811 45.7987L10.6806 42.1241C10.161 41.1192 9.71337 40.075 9.34504 39.0089L4.04259 39.0227C4.03939 39.0227 4.03587 39.0227 4.03268 39.0227C3.08914 39.0227 2.20092 38.6645 1.53012 38.0129C0.857084 37.359 0.484913 36.4896 0.482355 35.5647L0.459973 27.406C0.454858 25.494 2.04329 23.9342 4.00103 23.9289L9.30381 23.9152C9.66637 22.8472 10.1082 21.8005 10.622 20.7928L6.85975 17.1382C6.18736 16.4849 5.81551 15.6153 5.81327 14.6891C5.81072 13.7626 6.17779 12.8905 6.84633 12.2344L12.7374 6.45039C13.4063 5.79339 14.2971 5.42991 15.2454 5.42804H15.2556C16.2001 5.42804 17.0887 5.78589 17.7589 6.43698L21.5212 10.092C22.5488 9.58517 23.6183 9.14803 24.7112 8.78766L24.6971 3.6088C24.692 1.69683 26.2804 0.137084 28.2381 0.131775L36.5918 0.110229H36.6017C37.5452 0.110229 38.4335 0.468394 39.1043 1.12008C39.7773 1.77396 40.1495 2.64361 40.152 3.56852L40.1661 8.7474C41.2602 9.10177 42.332 9.53333 43.3631 10.0348L47.1056 6.36045C47.7742 5.70346 48.665 5.33998 49.6136 5.33811H49.6239C50.5683 5.33811 51.4569 5.69627 52.127 6.34735L58.0498 12.1008C58.7222 12.754 59.0938 13.624 59.0963 14.5504C59.0989 15.4766 58.7318 16.3485 58.0632 17.0045L54.3207 20.6792C54.8403 21.685 55.2882 22.7292 55.6563 23.7946L60.9585 23.7806H60.9675C62.9217 23.7806 64.5136 25.3303 64.5184 27.2392L64.5413 35.3976C64.5437 36.3226 64.176 37.1941 63.5067 37.8511C62.8381 38.5081 61.9473 38.8719 61 38.874L55.6975 38.8878C55.3352 39.9557 54.8931 41.0021 54.3793 42.0101L58.1416 45.6648C58.8143 46.318 59.1858 47.188 59.1884 48.1142C59.1909 49.0403 58.8239 49.9122 58.1553 50.5689L52.2639 56.3529C51.595 57.0099 50.7045 57.3727 49.7562 57.3752C49.7533 57.3752 49.7501 57.3752 49.7473 57.3752C48.8018 57.3752 47.913 57.0171 47.2428 56.366L43.4802 52.7113C42.4516 53.2184 41.382 53.6556 40.2905 54.0153L40.3045 59.1942C40.3097 61.1063 38.7212 62.6657 36.7635 62.671L28.4098 62.6927C28.406 62.6933 28.4028 62.6933 28.3992 62.6933ZM21.5138 51.3808C21.6145 51.3808 21.7162 51.4039 21.8099 51.452C23.0396 52.0799 24.3358 52.602 25.6623 53.0036C25.9293 53.0845 26.1116 53.3252 26.1125 53.5984L26.1279 59.2318C26.1295 59.8231 26.3677 60.3792 26.7984 60.7977C27.2294 61.2162 27.7975 61.4337 28.4057 61.4443L36.7593 61.4225C38.0117 61.419 39.0282 60.4215 39.025 59.1977L39.0097 53.5647C39.009 53.2918 39.19 53.0501 39.4566 52.9677C40.7807 52.5592 42.074 52.0306 43.3005 51.3961C43.5483 51.2686 43.8523 51.3123 44.0509 51.5053L48.1438 55.481C48.5725 55.8976 49.1417 56.1268 49.7463 56.1268H49.752C50.3586 56.1253 50.9287 55.8929 51.3565 55.4726L57.2479 49.6886C57.6757 49.2683 57.9104 48.7103 57.9088 48.1176C57.9072 47.5252 57.6693 46.9688 57.2393 46.5507L53.146 42.575C52.9475 42.382 52.9005 42.0853 53.0303 41.8427C53.6739 40.6402 54.2085 39.3746 54.6193 38.08C54.7022 37.8189 54.9487 37.6409 55.2285 37.6403L60.9964 37.6253C62.2488 37.6219 63.2654 36.6242 63.2618 35.4011L63.2395 27.2423C63.2365 26.0211 62.2175 25.0296 60.9675 25.0296C60.9657 25.0296 60.9639 25.0296 60.9615 25.0296L55.1939 25.0449C55.1933 25.0449 55.193 25.0449 55.1923 25.0449C54.9132 25.0449 54.6663 24.8685 54.5826 24.6084C54.1654 23.3175 53.6237 22.0544 52.973 20.8541C52.842 20.6124 52.8873 20.3154 53.085 20.1215L57.1562 16.1242C57.5839 15.704 57.8186 15.1466 57.817 14.5539C57.8154 13.9612 57.5776 13.4044 57.1475 12.9866L51.2248 7.2332C50.7944 6.81511 50.2185 6.59933 49.6165 6.58746C49.0097 6.58904 48.4399 6.82104 48.0121 7.24166L43.9406 11.2389C43.743 11.4328 43.4389 11.479 43.1908 11.3519C41.9611 10.724 40.6652 10.2019 39.338 9.8C39.071 9.71912 38.8888 9.47837 38.8878 9.20516L38.8725 3.57227C38.8709 2.98085 38.6327 2.42471 38.2017 2.00597C37.7722 1.58879 37.2041 1.35959 36.6011 1.35959C36.5989 1.35959 36.597 1.35959 36.5947 1.35959L28.241 1.38114C26.9886 1.38457 25.9722 2.38256 25.9753 3.60599L25.9907 9.2389C25.9914 9.51181 25.8107 9.75351 25.5441 9.83592C24.2184 10.245 22.9251 10.774 21.6999 11.4078C21.4521 11.5359 21.1484 11.4915 20.9495 11.2986L16.8572 7.32254C16.4284 6.90598 15.86 6.6771 15.2556 6.6771C15.2534 6.6771 15.2512 6.6771 15.249 6.6771C14.6421 6.67862 14.0723 6.91068 13.6442 7.3313L7.75308 13.115C7.32528 13.5353 7.09062 14.093 7.09219 14.686C7.09381 15.278 7.33172 15.8348 7.76175 16.2526L11.8549 20.2283C12.0539 20.4213 12.1005 20.7179 11.9707 20.9605C11.3274 22.1624 10.7928 23.4284 10.3816 24.7233C10.2989 24.9843 10.0523 25.1623 9.77253 25.163L4.00454 25.178C2.75215 25.1814 1.73571 26.1794 1.73891 27.4028L1.76129 35.5613C1.76481 36.7822 2.78316 37.7736 4.03268 37.7736H4.03908L9.80678 37.7586H9.80834C10.0875 37.7586 10.334 37.9351 10.4181 38.1949C10.8359 39.4876 11.3776 40.7507 12.0276 41.9489C12.1587 42.1906 12.1133 42.4879 11.9157 42.6818L7.84486 46.6794C7.41707 47.1 7.18204 47.6577 7.18397 48.2497C7.18559 48.8427 7.42344 49.3995 7.85347 49.8173L13.7759 55.5707C14.2047 55.9872 14.7738 56.2164 15.3788 56.2164H15.3845C15.991 56.2148 16.5611 55.9825 16.9889 55.5622L21.0601 51.565C21.1832 51.4444 21.3475 51.3808 21.5138 51.3808Z" fill="#2172A7"/>
<path d="M32.4995 50.088C27.4157 50.088 22.6287 48.156 19.0135 44.644C15.3861 41.1205 13.3807 36.435 13.3673 31.4513C13.3538 26.4679 15.3333 21.7724 18.9415 18.2298C22.5497 14.6869 27.347 12.729 32.4496 12.7156H32.5015C43.0283 12.7156 51.6056 21.0646 51.634 31.352C51.6621 41.6551 43.1019 50.0602 32.5516 50.088C32.5344 50.088 32.5164 50.088 32.4995 50.088ZM32.5011 13.9647C32.4848 13.9647 32.4688 13.9647 32.4528 13.9647C27.6917 13.9771 23.2151 15.8048 19.8479 19.1104C16.4809 22.4169 14.6334 26.7983 14.6462 31.4482C14.659 36.0981 16.5304 40.47 19.9154 43.7584C23.289 47.0357 27.7563 48.8389 32.4995 48.8389H32.5481C42.393 48.813 50.381 40.9699 50.3547 31.3551C50.3285 21.7562 42.324 13.9647 32.5011 13.9647Z" fill="#FF8941"/>
<path d="M14.0069 31.4501C14.0341 41.4094 22.3523 49.4901 32.5495 49.4635C42.7475 49.437 51.0212 41.3132 50.9941 31.3536C50.9669 21.3944 42.6487 13.3136 32.4508 13.3402C22.2535 13.3667 13.9798 21.4905 14.0069 31.4501ZM45.361 31.3683C45.3798 38.2939 39.6259 43.9431 32.5346 43.9618C25.4438 43.9802 19.6588 38.361 19.64 31.4354C19.6212 24.5098 25.375 18.8606 32.4658 18.842C39.5575 18.8235 45.3421 24.4427 45.361 31.3683Z" fill="#AEDEE9"/>
<path d="M32.6322 51.0886C27.3032 51.0886 22.285 49.0633 18.4952 45.3821C14.6925 41.688 12.5906 36.7761 12.5762 31.5517C12.5465 20.7502 21.5202 11.9392 32.5801 11.9105H32.6341C43.6704 11.9105 52.6622 20.6631 52.6917 31.4474C52.7057 36.6715 50.6307 41.5943 46.8485 45.3084C43.0661 49.0221 38.0366 51.0752 32.6872 51.0889C32.669 51.0886 32.6504 51.0886 32.6322 51.0886ZM32.6341 13.1595C32.6172 13.1595 32.6005 13.1595 32.5836 13.1595C22.229 13.1867 13.8277 21.4357 13.8555 31.5486C13.8689 36.4392 15.8369 41.0379 19.3975 44.4965C22.9577 47.9554 27.6638 49.8621 32.684 49.8396C37.692 49.8265 42.4004 47.9045 45.9418 44.4271C49.4831 40.9498 51.4261 36.3411 51.4127 31.4502C51.3852 21.3548 42.9657 13.1595 32.6341 13.1595ZM32.6328 45.3118C28.8757 45.3118 25.3371 43.8838 22.6648 41.288C19.9835 38.6831 18.5012 35.2198 18.4913 31.5364C18.4705 23.9203 24.7981 17.7076 32.5961 17.687H32.6341C40.4158 17.687 46.7564 23.8588 46.7772 31.4627C46.7871 35.1464 45.324 38.6172 42.6568 41.2359C39.9899 43.8545 36.4438 45.3018 32.6718 45.3118C32.6587 45.3118 32.6456 45.3118 32.6328 45.3118ZM32.6338 18.9363C32.6219 18.9363 32.6111 18.9363 32.5993 18.9363C25.5063 18.9551 19.751 24.6058 19.7699 31.5336C19.7789 34.8835 21.1275 38.0333 23.5665 40.4028C25.9971 42.7641 29.2158 44.0631 32.6325 44.0631H32.6677C36.0981 44.0543 39.3233 42.7375 41.7494 40.3556C44.1755 37.9734 45.5066 34.8167 45.4977 31.4661C45.4791 24.5502 39.7114 18.9363 32.6338 18.9363Z" fill="#FF8941"/>
<path d="M29.3958 27.2442H27.9893C27.9893 27.2454 27.9896 27.2467 27.9896 27.2479V36.6164H29.3961C29.6794 36.6164 29.909 36.3922 29.909 36.1155V27.7451C29.909 27.4684 29.6791 27.2442 29.3958 27.2442Z" fill="#FFF9F6"/>
<path d="M41.4941 29.624C41.7119 29.4845 41.8561 29.2452 41.8561 28.9717V28.0771C41.8561 27.6436 41.4964 27.2924 41.0525 27.2924H40.1672H35.8483C35.5806 27.2924 35.3635 27.0804 35.3635 26.819V23.899C35.3635 22.65 34.3279 21.637 33.0493 21.6345C32.6675 21.6339 32.3549 21.9355 32.3549 22.3084V24.2628C32.3549 24.7265 32.2317 25.1821 31.9974 25.5852L30.5621 28.0568C30.4406 28.27 30.3709 28.5155 30.3709 28.7768V28.7928H29.9102V35.1042H30.3812C30.4825 36.09 31.3343 36.8594 32.3702 36.8594H33.4113H40.1672H41.0116C41.4781 36.8594 41.8561 36.49 41.8561 36.0348V35.2925C41.8561 35.0389 41.739 34.8122 41.5549 34.6611C41.4298 34.5584 41.4298 34.3773 41.5549 34.2745C41.739 34.1231 41.8561 33.8964 41.8561 33.6431V32.9009C41.8561 32.6473 41.739 32.4206 41.5549 32.2695C41.4298 32.1668 41.4298 31.9857 41.5549 31.8829C41.739 31.7315 41.8561 31.5047 41.8561 31.2515V30.5093C41.8561 30.2267 41.7096 29.9797 41.4874 29.832C41.4113 29.7814 41.4174 29.6734 41.4941 29.624Z" fill="#FFF9F6"/>
<path d="M27.027 37.7464H23.8661C23.4671 37.7464 23.1436 37.4304 23.1436 37.0407V27.0127C23.1436 26.623 23.4671 26.307 23.8661 26.307H27.027C27.559 26.307 27.9904 26.7283 27.9904 27.2479V36.8056C27.9904 37.3252 27.559 37.7464 27.027 37.7464Z" fill="#FF8941"/>
<path d="M27.3296 38.7377H24.1687C23.4176 38.7377 22.8066 38.141 22.8066 37.4075V27.3795C22.8066 26.646 23.4176 26.0493 24.1687 26.0493H27.3296C28.2133 26.0493 28.9324 26.7516 28.9324 27.615V37.1724C28.9324 38.0354 28.2133 38.7377 27.3296 38.7377ZM24.1687 27.2987C24.123 27.2987 24.0856 27.3349 24.0856 27.3798V37.4078C24.0856 37.4528 24.123 37.489 24.1687 37.489H27.3296C27.5083 37.489 27.6535 37.3472 27.6535 37.1727V27.615C27.6535 27.4404 27.508 27.2984 27.3296 27.2984H24.1687V27.2987Z" fill="#2172A7"/>
<path d="M29.699 37.6077H28.2928C27.9398 37.6077 27.6533 37.328 27.6533 36.9832V27.6245C27.6533 27.6198 27.6533 27.6154 27.6533 27.611C27.6533 27.2663 27.9398 26.9865 28.2928 26.9865H29.6993C30.3346 26.9865 30.8516 27.4914 30.8516 28.1119V36.4824C30.8516 37.1028 30.3346 37.6077 29.699 37.6077ZM28.9323 36.3587H29.5727V28.2356H28.9323V36.3587ZM29.699 28.2356H29.7021H29.699Z" fill="#2172A7"/>
<path d="M41.3142 37.8511H32.6728C31.5124 37.8511 30.5209 37.127 30.1696 36.0944C29.8364 36.0728 29.5732 35.802 29.5732 35.4714V29.1599C29.5732 28.8442 29.8131 28.5832 30.1248 28.5414C30.1693 28.3946 30.23 28.2535 30.3061 28.1202L31.7439 25.6442C31.9233 25.3357 32.018 24.985 32.018 24.6296V22.6752C32.018 22.3286 32.1567 22.0026 32.4086 21.7575C32.6606 21.512 32.9947 21.3768 33.3503 21.3768H33.3535C34.9812 21.3799 36.3056 22.6758 36.3056 24.2659V27.0347H41.3551C42.1509 27.0347 42.7981 27.6667 42.7981 28.4443V29.3386C42.7981 29.6143 42.7159 29.8782 42.5669 30.1018C42.7159 30.33 42.7981 30.5976 42.7981 30.8758V31.6181C42.7981 31.9166 42.7047 32.2033 42.5346 32.4431C42.7047 32.6829 42.7981 32.9696 42.7981 33.268V34.0103C42.7981 34.3088 42.7047 34.5952 42.5346 34.835C42.7047 35.0748 42.7981 35.3614 42.7981 35.66V36.4022C42.7981 37.201 42.1324 37.8511 41.3142 37.8511ZM30.8522 34.8691C31.1019 34.9355 31.2928 35.147 31.3199 35.4092C31.3896 36.0894 31.9713 36.6021 32.6728 36.6021H41.3142C41.4274 36.6021 41.5192 36.5122 41.5192 36.4016V35.6594C41.5192 35.5782 41.4731 35.5282 41.4459 35.506C41.2413 35.3378 41.1243 35.0932 41.1243 34.8347C41.1243 34.5765 41.2416 34.3319 41.4459 34.1639C41.4734 34.1415 41.5195 34.0915 41.5195 34.0103V33.268C41.5195 33.1869 41.4734 33.1369 41.4462 33.1147C41.2416 32.9465 41.1246 32.7019 41.1246 32.4434C41.1246 32.1848 41.2416 31.9403 41.4456 31.7727C41.4734 31.7498 41.5195 31.6999 41.5195 31.6187V30.8765C41.5195 30.7844 41.4574 30.7334 41.4306 30.7153C41.2195 30.5757 41.0948 30.3431 41.0971 30.0933C41.0993 29.8413 41.2298 29.6081 41.4466 29.4694C41.4686 29.4551 41.5198 29.4138 41.5198 29.3392V28.4449C41.5198 28.3565 41.4462 28.2844 41.3557 28.2844H36.1514C35.5315 28.2844 35.0273 27.7919 35.0273 27.1862V24.2662C35.0273 23.3634 34.2753 22.6281 33.3512 22.6262C33.3362 22.6262 33.3231 22.6315 33.3122 22.6421C33.2975 22.6565 33.2975 22.6708 33.2975 22.6755V24.63C33.2975 25.2008 33.145 25.7647 32.8572 26.2609L31.422 28.7322C31.351 28.8564 31.3139 28.9967 31.3139 29.144C31.3139 29.4282 31.1195 29.6793 30.8531 29.7589V34.8691H30.8522ZM41.7967 29.9912H41.7999H41.7967ZM42.149 29.6821C42.1494 29.6821 42.1497 29.6824 42.15 29.6827C42.1497 29.6824 42.1494 29.6821 42.149 29.6821Z" fill="#2172A7"/>
</svg>
