<svg width="74" height="62" viewBox="0 0 74 62" fill="none" xmlns="http://www.w3.org/2000/svg">
<path d="M0 0H73.7841V11.299H0V0Z" fill="#FF8941"/>
<path d="M0 10.2421H73.7841V61.3774H0V10.2421Z" fill="white"/>
<path d="M15.7739 31.6847L8.21879 21.3501V31.6847H4.84521V15.8383H8.31397L15.6551 25.7929V15.8383H19.0289V31.6847H15.7739Z" fill="#1D6392"/>
<path d="M22.1631 31.6847V15.8383H33.3768V18.808H25.5367V22.1578H33.2105V25.1275H25.5367V28.715H33.3768V31.6847H22.1631Z" fill="#1D6392"/>
<path d="M48.1298 31.6848L45.35 20.8038L42.5942 31.6848H39.0067L34.4688 15.8384H38.2464L41.0262 27.2896L44.0433 15.8384H46.6803L49.6739 27.2896L52.4299 15.8384H56.2311L51.7171 31.6848H48.1298Z" fill="#1D6392"/>
<path d="M56.7524 29.4516L58.5818 26.8857C59.6984 28.0499 61.4328 29.0239 63.6184 29.0239C65.4715 29.0239 66.3744 28.1687 66.3744 27.2658C66.3744 24.4624 57.2513 26.3867 57.2513 20.4234C57.2513 17.7864 59.532 15.6006 63.2619 15.6006C65.7804 15.6006 67.871 16.3609 69.4391 17.81L67.5621 20.2809C66.2792 19.0929 64.5686 18.5465 62.953 18.5465C61.5039 18.5465 60.696 19.1881 60.696 20.1383C60.696 22.6566 69.7951 20.9698 69.7951 26.8855C69.7951 29.7841 67.728 31.9697 63.4518 31.9697C60.4111 31.9699 58.2255 30.9482 56.7524 29.4516Z" fill="#1D6392"/>
<path d="M4.62549 37.8641H70.1643V44.3535H4.62549V37.8641Z" fill="#CDD2E1"/>
<path d="M42.2578 48.519H70.1647V55.0084H42.2578V48.519Z" fill="#CDD2E1"/>
<path d="M4.62549 48.519H32.5323V55.0084H4.62549V48.519Z" fill="#CDD2E1"/>
<path d="M4.81374 7.51702C6.21483 7.51702 7.35063 6.38121 7.35063 4.98013C7.35063 3.57904 6.21483 2.44324 4.81374 2.44324C3.41266 2.44324 2.27686 3.57904 2.27686 4.98013C2.27686 6.38121 3.41266 7.51702 4.81374 7.51702Z" fill="#1D6392"/>
<path d="M18.6253 7.51702C20.0263 7.51702 21.1622 6.38121 21.1622 4.98013C21.1622 3.57904 20.0263 2.44324 18.6253 2.44324C17.2242 2.44324 16.0884 3.57904 16.0884 4.98013C16.0884 6.38121 17.2242 7.51702 18.6253 7.51702Z" fill="#1D6392"/>
<path d="M11.7195 7.51702C13.1206 7.51702 14.2564 6.38121 14.2564 4.98013C14.2564 3.57904 13.1206 2.44324 11.7195 2.44324C10.3184 2.44324 9.18262 3.57904 9.18262 4.98013C9.18262 6.38121 10.3184 7.51702 11.7195 7.51702Z" fill="#1D6392"/>
</svg>
