<svg width="82" height="82" viewBox="0 0 82 82" fill="none" xmlns="http://www.w3.org/2000/svg">
<path d="M2.5625 2.5625H79.4375V10.25H2.5625V2.5625Z" fill="#1D6392"/>
<path d="M6.40625 10.25H75.5938V67.9062H6.40625V10.25Z" fill="#E3E3E3"/>
<path d="M75.5938 32.0312C61.4438 46.362 39.2126 56.9332 6.40625 59.9579V67.9062H75.5938V32.0312Z" fill="#D8D8D8"/>
<path d="M2.5625 67.9062H79.4375V73.0312H2.5625V67.9062Z" fill="#1D6392"/>
<path d="M36.3567 61.5003H21.7812V58.9378H35.3933L46.0631 49.6025L56.3131 57.29L65.7811 49.0044L67.4689 50.9338L56.4369 60.5857L46.1869 52.8982L36.3567 61.5003Z" fill="#1D6392"/>
<path d="M35.875 62.7812C37.2902 62.7812 38.4375 61.634 38.4375 60.2188C38.4375 58.8035 37.2902 57.6562 35.875 57.6562C34.4598 57.6562 33.3125 58.8035 33.3125 60.2188C33.3125 61.634 34.4598 62.7812 35.875 62.7812Z" fill="#FF6A0E"/>
<path d="M46.125 53.8125C47.5402 53.8125 48.6875 52.6652 48.6875 51.25C48.6875 49.8348 47.5402 48.6875 46.125 48.6875C44.7098 48.6875 43.5625 49.8348 43.5625 51.25C43.5625 52.6652 44.7098 53.8125 46.125 53.8125Z" fill="#FF6A0E"/>
<path d="M56.375 61.5C57.7902 61.5 58.9375 60.3527 58.9375 58.9375C58.9375 57.5223 57.7902 56.375 56.375 56.375C54.9598 56.375 53.8125 57.5223 53.8125 58.9375C53.8125 60.3527 54.9598 61.5 56.375 61.5Z" fill="#FF6A0E"/>
<path d="M66.625 52.5312C68.0402 52.5312 69.1875 51.384 69.1875 49.9688C69.1875 48.5535 68.0402 47.4062 66.625 47.4062C65.2098 47.4062 64.0625 48.5535 64.0625 49.9688C64.0625 51.384 65.2098 52.5312 66.625 52.5312Z" fill="#FF6A0E"/>
<path d="M25.625 37.1562C29.8707 37.1562 33.3125 33.7144 33.3125 29.4688C33.3125 25.2231 29.8707 21.7812 25.625 21.7812C21.3793 21.7812 17.9375 25.2231 17.9375 29.4688C17.9375 33.7144 21.3793 37.1562 25.625 37.1562Z" fill="#FF8941"/>
<path d="M31.0609 24.0328C29.6697 22.6417 27.7479 21.7812 25.625 21.7812V29.4688L31.0609 24.0328Z" fill="white"/>
<path d="M44.8438 32.0312H49.9688V39.7188H44.8438V32.0312Z" fill="#FF8941"/>
<path d="M49.9688 24.3438H55.0938V39.7188H49.9688V24.3438Z" fill="#E9976F"/>
<path d="M55.0938 28.1875H60.2188V39.7188H55.0938V28.1875Z" fill="#FF8941"/>
<path d="M60.2188 17.9375H65.3438V39.7188H60.2188V17.9375Z" fill="#E9976F"/>
<path d="M43.5625 79.4375H38.4375C36.3179 79.4375 34.5938 77.7133 34.5938 75.5938V73.0312H37.1562V75.5938C37.1562 76.3007 37.7312 76.875 38.4375 76.875H43.5625C44.2688 76.875 44.8438 76.3007 44.8438 75.5938V73.0312H47.4062V75.5938C47.4062 77.7133 45.6821 79.4375 43.5625 79.4375Z" fill="#1D6392"/>
<path d="M25.625 43.5625C17.8537 43.5625 11.5312 37.2401 11.5312 29.4688H14.0938C14.0938 35.8275 19.2669 41 25.625 41C31.9831 41 37.1562 35.8275 37.1562 29.4688C37.1562 23.11 31.9831 17.9375 25.625 17.9375V15.375C33.3963 15.375 39.7188 21.6974 39.7188 29.4688C39.7188 37.2401 33.3963 43.5625 25.625 43.5625Z" fill="#1D6392"/>
<path d="M41 38.4375H69.1875V41H41V38.4375Z" fill="#1D6392"/>
<path d="M16.6562 58.9375H19.2188V61.5H16.6562V58.9375Z" fill="#1D6392"/>
<path d="M11.5312 58.9375H14.0938V61.5H11.5312V58.9375Z" fill="#1D6392"/>
</svg>
