<svg width="82" height="82" viewBox="0 0 82 82" fill="none" xmlns="http://www.w3.org/2000/svg">
<g clip-path="url(#clip0)">
<path d="M29.2437 52.9517L24.2939 57.9015L29.4793 65.4438L33.055 61.8682C33.5865 61.3366 33.6916 60.513 33.3104 59.865L29.2437 52.9517Z" fill="#E3E3E3"/>
<path d="M25.2369 56.9585L19.3442 62.851L29.9509 77.7002L35.6078 72.0433L25.2369 56.9585Z" fill="#9BB9C1"/>
<path d="M21.5047 65.876L24.2889 63.0918C24.9774 62.4033 25.763 61.8189 26.6205 61.3575L27.818 60.7129L25.2369 56.9585L19.3442 62.8511L21.5047 65.876Z" fill="#86A0AF"/>
<path d="M24.0585 6.28259L20.7587 9.58229C20.1078 10.2332 20.1078 11.2884 20.7587 11.9393L56.1141 47.2948C56.765 47.9456 57.8203 47.9456 58.4711 47.2948L61.771 43.9949C62.4219 43.344 62.4219 42.2888 61.771 41.6379L26.4155 6.28259C25.7647 5.63171 24.7094 5.63171 24.0585 6.28259Z" fill="#FF8941"/>
<path d="M24.0586 6.28259L21.6343 8.70687C22.2852 8.056 23.3404 8.056 23.9913 8.70687L59.3466 44.0622C59.9975 44.713 59.9975 45.7683 59.3466 46.4192L61.7709 43.9947C62.4218 43.3439 62.4218 42.2886 61.7709 41.6377L26.4156 6.28259C25.7647 5.63171 24.7094 5.63171 24.0586 6.28259Z" fill="#EF9265"/>
<path d="M20.9125 22.7572L8.97363 44.938L23.1157 59.0801L45.2964 47.1414C46.8604 46.2997 48.6202 45.8897 50.3952 45.9534L54.9354 46.1166L21.9373 13.1182L22.1005 17.6584C22.1643 19.4334 21.7543 21.1932 20.9125 22.7572Z" fill="#1D6392"/>
<path d="M54.9354 46.117L50.3954 45.9537C48.6204 45.8886 46.8605 46.2986 45.2972 47.142L27.377 56.7869C33.6669 47.5003 34.667 32.1669 32.062 23.2437L54.9354 46.117Z" fill="#2D85BE"/>
<path d="M8.97356 44.938L3.08093 50.8306C2.43005 51.4815 2.43005 52.5368 3.08093 53.1876L14.866 64.9727C15.5169 65.6236 16.5722 65.6236 17.223 64.9727L23.1157 59.0801L8.97356 44.938Z" fill="#FF8941"/>
<path d="M6.77051 47.1313L8.96729 44.9346L23.1073 59.0746L20.9105 61.2713L6.77051 47.1313Z" fill="#EF9265"/>
<path d="M3.08093 53.1875L0.488156 55.7803C-0.162719 56.4311 -0.162719 57.4864 0.488156 58.1373L9.91623 67.5654C10.5671 68.2162 11.6224 68.2162 12.2733 67.5654L14.866 64.9726L3.08093 53.1875Z" fill="#1D6392"/>
<path d="M51.1644 31.031L52.6201 28.2521C53.2966 26.9606 53.0552 25.3794 52.0243 24.3485L43.705 16.0292C42.6741 14.9982 41.0928 14.7569 39.8013 15.4334L37.0225 16.889L51.1644 31.031Z" fill="#1D6392"/>
<path d="M39.6146 75.5792L33.4864 81.7074C33.096 82.0979 32.4627 82.0979 32.0722 81.7074L29.7152 79.3504C29.3247 78.9599 29.3247 78.3267 29.7152 77.9362L35.8434 71.808C36.2339 71.4175 36.8671 71.4175 37.2576 71.808L39.6146 74.165C40.0051 74.5555 40.0051 75.1887 39.6146 75.5792Z" fill="#FF8941"/>
<path d="M35.8434 71.8076L33.7222 73.9289C34.1126 73.5384 34.7459 73.5384 35.1363 73.9289L37.4934 76.2859C37.8838 76.6764 37.8838 77.3096 37.4934 77.7001L39.6146 75.5788C40.0051 75.1884 40.0051 74.5551 39.6146 74.1646L37.2576 71.8076C36.8672 71.417 36.2341 71.417 35.8434 71.8076Z" fill="#EF9265"/>
<path d="M81.9999 1.64993V14.3502C81.9999 15.2614 81.2613 16.0001 80.35 16.0001H63.3276C63.1148 16.0001 62.9077 16.0686 62.737 16.1956L57.5537 20.0498C57.1182 20.3736 56.4998 20.0628 56.4998 19.5202V16.6599C56.4998 16.2954 56.2044 15.9999 55.8398 15.9999H54.3164C53.4051 15.9999 52.6665 15.2613 52.6665 14.35V1.64993C52.6665 0.738641 53.4051 0 54.3164 0H80.35C81.2613 0 81.9999 0.738641 81.9999 1.64993Z" fill="white"/>
<path d="M69.6668 48.3331C76.4783 48.3331 82.0001 42.8113 82.0001 35.9998C82.0001 29.1883 76.4783 23.6665 69.6668 23.6665C62.8553 23.6665 57.3335 29.1883 57.3335 35.9998C57.3335 42.8113 62.8553 48.3331 69.6668 48.3331Z" fill="#E3E3E3"/>
<path d="M65.6665 31.6927V40.3073C65.6665 41.0644 66.4819 41.5413 67.1417 41.1701L74.7993 36.8627C75.4721 36.4842 75.4721 35.5155 74.7993 35.137L67.1417 30.8296C66.4819 30.4587 65.6665 30.9355 65.6665 31.6927Z" fill="#767676"/>
<path d="M76.6668 6.57044H58.0001C57.3165 6.57044 56.7627 6.01646 56.7627 5.33307C56.7627 4.64968 57.3167 4.0957 58.0001 4.0957H76.6668C77.3503 4.0957 77.9041 4.64968 77.9041 5.33307C77.9041 6.01646 77.3503 6.57044 76.6668 6.57044Z" fill="#FF8941"/>
<path d="M69.9998 11.9039H57.9996C57.316 11.9039 56.7622 11.35 56.7622 10.6666C56.7622 9.98318 57.3162 9.4292 57.9996 9.4292H69.9998C70.6833 9.4292 71.2371 9.98318 71.2371 10.6666C71.2371 11.35 70.6833 11.9039 69.9998 11.9039Z" fill="#FF8941"/>
</g>
<defs>
<clipPath id="clip0">
<rect width="82" height="82" fill="white"/>
</clipPath>
</defs>
</svg>
