<svg width="73" height="78" viewBox="0 0 73 78" fill="none" xmlns="http://www.w3.org/2000/svg">
<path d="M0 14.3359C0 14.7108 0.147904 15.0703 0.411175 15.3353C0.674446 15.6004 1.03152 15.7493 1.40384 15.7493H7.0192C7.39152 15.7493 7.74859 15.6004 8.01186 15.3353C8.27513 15.0703 8.42304 14.7108 8.42304 14.3359C8.42304 13.9611 8.27513 13.6016 8.01186 13.3366C7.74859 13.0715 7.39152 12.9226 7.0192 12.9226H1.40384C1.03152 12.9226 0.674446 13.0715 0.411175 13.3366C0.147904 13.6016 0 13.9611 0 14.3359Z" fill="#1D6392"/>
<path d="M71.5963 12.9226H65.981C65.6087 12.9226 65.2516 13.0715 64.9883 13.3366C64.7251 13.6016 64.5771 13.9611 64.5771 14.3359C64.5771 14.7108 64.7251 15.0703 64.9883 15.3353C65.2516 15.6004 65.6087 15.7493 65.981 15.7493H71.5963C71.9687 15.7493 72.3257 15.6004 72.589 15.3353C72.8523 15.0703 73.0002 14.7108 73.0002 14.3359C73.0002 13.9611 72.8523 13.6016 72.589 13.3366C72.3257 13.0715 71.9687 12.9226 71.5963 12.9226Z" fill="#1D6392"/>
<path d="M7.01978 10.0957C7.29739 10.0957 7.56875 10.0127 7.79956 9.85743C8.03036 9.70213 8.21025 9.48142 8.31648 9.2232C8.42271 8.96499 8.45051 8.68087 8.39636 8.40675C8.34222 8.13263 8.20857 7.88083 8.0123 7.68317L5.20462 4.85652C5.07512 4.72153 4.92021 4.61386 4.74894 4.53979C4.57767 4.46572 4.39345 4.42673 4.20705 4.4251C4.02065 4.42347 3.8358 4.45923 3.66327 4.53029C3.49074 4.60136 3.334 4.7063 3.20219 4.839C3.07038 4.9717 2.96614 5.1295 2.89556 5.3032C2.82497 5.47689 2.78945 5.66299 2.79107 5.85065C2.79269 6.03831 2.83141 6.22377 2.90499 6.3962C2.97856 6.56863 3.08551 6.72459 3.21959 6.85496L6.02727 9.68161C6.29048 9.94668 6.64749 10.0956 7.01978 10.0957Z" fill="#1D6392"/>
<path d="M65.9807 10.0957C66.353 10.0956 66.71 9.94668 66.9732 9.68161L69.7809 6.85496C69.915 6.72459 70.0219 6.56863 70.0955 6.3962C70.1691 6.22377 70.2078 6.03831 70.2094 5.85065C70.211 5.66299 70.1755 5.47689 70.1049 5.3032C70.0343 5.1295 69.9301 4.9717 69.7983 4.839C69.6665 4.7063 69.5097 4.60136 69.3372 4.53029C69.1647 4.45923 68.9798 4.42347 68.7934 4.4251C68.607 4.42673 68.4228 4.46572 68.2515 4.53979C68.0803 4.61386 67.9254 4.72153 67.7959 4.85652L64.9882 7.68317C64.7919 7.88083 64.6583 8.13263 64.6041 8.40675C64.55 8.68087 64.5778 8.96499 64.684 9.2232C64.7902 9.48142 64.9701 9.70213 65.2009 9.85743C65.4317 10.0127 65.7031 10.0957 65.9807 10.0957V10.0957Z" fill="#1D6392"/>
<path d="M67.7945 23.8148C68.0593 24.0723 68.4139 24.2147 68.782 24.2115C69.1501 24.2083 69.5022 24.0597 69.7625 23.7976C70.0227 23.5356 70.1704 23.1811 70.1736 22.8105C70.1768 22.44 70.0353 22.083 69.7796 21.8164L66.9719 18.9898C66.7071 18.7323 66.3525 18.5899 65.9844 18.5931C65.6163 18.5963 65.2642 18.7449 65.0039 19.007C64.7437 19.269 64.596 19.6235 64.5928 19.9941C64.5896 20.3646 64.7311 20.7216 64.9868 20.9882L67.7945 23.8148Z" fill="#1D6392"/>
<path d="M6.02727 18.9898L3.21959 21.8164C3.08551 21.9468 2.97856 22.1027 2.90499 22.2752C2.83141 22.4476 2.79269 22.6331 2.79107 22.8207C2.78945 23.0084 2.82497 23.1945 2.89556 23.3682C2.96614 23.5419 3.07038 23.6997 3.20219 23.8324C3.334 23.9651 3.49074 24.07 3.66327 24.1411C3.8358 24.2121 4.02065 24.2479 4.20705 24.2463C4.39345 24.2446 4.57767 24.2056 4.74894 24.1316C4.92021 24.0575 5.07512 23.9498 5.20462 23.8148L8.0123 20.9882C8.26802 20.7216 8.40952 20.3646 8.40632 19.9941C8.40312 19.6235 8.25548 19.269 7.9952 19.007C7.73491 18.7449 7.38281 18.5963 7.01473 18.5931C6.64665 18.5899 6.29204 18.7323 6.02727 18.9898Z" fill="#1D6392"/>
<path d="M12.6346 38.3623C11.5176 38.3623 10.4464 37.9156 9.65656 37.1204C8.86675 36.3253 8.42304 35.2468 8.42304 34.1223C8.42304 33.7475 8.27513 33.388 8.01186 33.1229C7.74859 32.8579 7.39152 32.709 7.0192 32.709C6.64687 32.709 6.2898 32.8579 6.02653 33.1229C5.76326 33.388 5.61536 33.7475 5.61536 34.1223C5.61536 35.2468 5.17165 36.3253 4.38183 37.1204C3.59202 37.9156 2.5208 38.3623 1.40384 38.3623C1.03152 38.3623 0.674446 38.5112 0.411175 38.7762C0.147904 39.0413 0 39.4008 0 39.7756C0 40.1504 0.147904 40.5099 0.411175 40.775C0.674446 41.04 1.03152 41.1889 1.40384 41.1889C2.5208 41.1889 3.59202 41.6356 4.38183 42.4308C5.17165 43.2259 5.61536 44.3044 5.61536 45.4289C5.61536 45.8037 5.76326 46.1632 6.02653 46.4283C6.2898 46.6933 6.64687 46.8422 7.0192 46.8422C7.39152 46.8422 7.74859 46.6933 8.01186 46.4283C8.27513 46.1632 8.42304 45.8037 8.42304 45.4289C8.42304 44.3044 8.86675 43.2259 9.65656 42.4308C10.4464 41.6356 11.5176 41.1889 12.6346 41.1889C13.0069 41.1889 13.3639 41.04 13.6272 40.775C13.8905 40.5099 14.0384 40.1504 14.0384 39.7756C14.0384 39.4008 13.8905 39.0413 13.6272 38.7762C13.3639 38.5112 13.0069 38.3623 12.6346 38.3623ZM7.0192 41.2327C6.61024 40.6783 6.12258 40.1873 5.57184 39.7756C6.12258 39.3639 6.61024 38.8729 7.0192 38.3185C7.42815 38.8729 7.91581 39.3639 8.46655 39.7756C7.91581 40.1873 7.42815 40.6783 7.0192 41.2327V41.2327Z" fill="#1D6392"/>
<path d="M71.5955 38.3623C70.4785 38.3623 69.4073 37.9156 68.6175 37.1204C67.8277 36.3253 67.384 35.2468 67.384 34.1223C67.384 33.7475 67.2361 33.388 66.9728 33.1229C66.7095 32.8579 66.3525 32.709 65.9801 32.709C65.6078 32.709 65.2507 32.8579 64.9875 33.1229C64.7242 33.388 64.5763 33.7475 64.5763 34.1223C64.5763 35.2468 64.1326 36.3253 63.3428 37.1204C62.553 37.9156 61.4817 38.3623 60.3648 38.3623C59.9925 38.3623 59.6354 38.5112 59.3721 38.7762C59.1088 39.0413 58.9609 39.4008 58.9609 39.7756C58.9609 40.1504 59.1088 40.5099 59.3721 40.775C59.6354 41.04 59.9925 41.1889 60.3648 41.1889C61.4817 41.1889 62.553 41.6356 63.3428 42.4308C64.1326 43.2259 64.5763 44.3044 64.5763 45.4289C64.5763 45.8037 64.7242 46.1632 64.9875 46.4283C65.2507 46.6933 65.6078 46.8422 65.9801 46.8422C66.3525 46.8422 66.7095 46.6933 66.9728 46.4283C67.2361 46.1632 67.384 45.8037 67.384 45.4289C67.384 44.3044 67.8277 43.2259 68.6175 42.4308C69.4073 41.6356 70.4785 41.1889 71.5955 41.1889C71.9678 41.1889 72.3249 41.04 72.5882 40.775C72.8514 40.5099 72.9993 40.1504 72.9993 39.7756C72.9993 39.4008 72.8514 39.0413 72.5882 38.7762C72.3249 38.5112 71.9678 38.3623 71.5955 38.3623ZM65.9801 41.2327C65.5712 40.6783 65.0835 40.1873 64.5328 39.7756C65.0835 39.3639 65.5712 38.8729 65.9801 38.3185C66.3891 38.8729 66.8767 39.3639 67.4275 39.7756C66.8767 40.1873 66.3891 40.6783 65.9801 41.2327Z" fill="#1D6392"/>
<path d="M37.9736 55.5881C37.3823 54.9739 36.8854 54.2741 36.4996 53.512C36.1137 54.2737 35.6174 54.9734 35.027 55.5881L33.9544 56.6651C33.455 57.1587 32.895 57.5862 32.2881 57.9371V71.7961L32.4046 71.7113L34.4472 70.2104C34.7135 69.9731 35.0171 69.7821 35.3456 69.6451C35.711 69.4904 36.1033 69.4108 36.4996 69.4108C36.8959 69.4108 37.2882 69.4904 37.6536 69.6451C37.9821 69.7821 38.2857 69.9731 38.552 70.2104L40.5946 71.7113L40.7111 71.7961V57.9328C40.1042 57.5819 39.5442 57.1545 39.0448 56.6608L37.9736 55.5881Z" fill="#FF8941"/>
<path d="M47.731 59.5623H46.3272C45.376 59.533 44.4324 59.381 43.5195 59.11V73.8552L49.1349 77.9807V58.1489C49.1349 58.5238 48.987 58.8832 48.7237 59.1483C48.4604 59.4133 48.1034 59.5623 47.731 59.5623Z" fill="#FF8941"/>
<path d="M35.0959 48.2556C33.1522 48.3395 31.2904 49.0668 29.7992 50.3247L28.7281 51.4031C27.4786 52.9043 26.7561 54.7788 26.6729 56.7356C28.6165 56.6517 30.4784 55.9244 31.9695 54.6665L33.0407 53.5881C34.2902 52.0869 35.0126 50.2124 35.0959 48.2556V48.2556Z" fill="#FF8941"/>
<path d="M25.2691 59.5623C24.8968 59.5623 24.5397 59.4133 24.2764 59.1483C24.0131 58.8832 23.8652 58.5238 23.8652 58.1489V77.9807L29.4806 73.8552V59.11C28.5678 59.381 27.6242 59.533 26.6729 59.5623H25.2691Z" fill="#FF8941"/>
<path d="M27.8142 48.3263C28.2601 47.8905 28.7542 47.5078 29.2869 47.1857C27.3929 46.6131 25.573 45.8166 23.8652 44.8127V56.7355C23.9467 54.0288 24.964 51.4355 26.7417 49.4032L27.8142 48.3263Z" fill="#FF8941"/>
<path d="M44.2711 51.4031L43.2 50.3247C41.7088 49.0668 39.847 48.3395 37.9033 48.2556C37.9866 50.2124 38.709 52.0869 39.9585 53.5881L41.0297 54.6665C42.5208 55.9244 44.3827 56.6517 46.3264 56.7356C46.2431 54.7788 45.5206 52.9043 44.2711 51.4031Z" fill="#FF8941"/>
<path d="M36.4995 0.202637C32.0571 0.202637 27.7144 1.52888 24.0206 4.01365C20.3269 6.49842 17.4479 10.0301 15.7479 14.1621C14.0478 18.2942 13.603 22.8409 14.4697 27.2274C15.3364 31.614 17.4756 35.6433 20.6169 38.8058C23.7582 41.9683 27.7604 44.122 32.1175 44.9945C36.4746 45.8671 40.9909 45.4192 45.0951 43.7077C49.1994 41.9962 52.7074 39.0978 55.1755 35.3791C57.6436 31.6603 58.961 27.2883 58.961 22.8158C58.9539 16.8206 56.5852 11.073 52.3744 6.83374C48.1636 2.59448 42.4545 0.209743 36.4995 0.202637V0.202637ZM36.4995 42.6024C32.6124 42.6024 28.8125 41.4419 25.5805 39.2677C22.3484 37.0936 19.8294 34.0033 18.3418 30.3878C16.8543 26.7723 16.4651 22.7939 17.2234 18.9557C17.9818 15.1175 19.8536 11.5918 22.6022 8.82463C25.3509 6.05743 28.8528 4.17295 32.6653 3.40948C36.4777 2.64601 40.4294 3.03785 44.0207 4.53545C47.6119 6.03304 50.6814 8.56913 52.841 11.823C55.0006 15.0769 56.1533 18.9024 56.1533 22.8158C56.1477 28.0618 54.0753 33.0914 50.3907 36.8008C46.7061 40.5103 41.7103 42.5968 36.4995 42.6024Z" fill="#FF8941"/>
<path d="M36.5004 5.85596C33.1685 5.85596 29.9115 6.85064 27.1412 8.71421C24.3709 10.5778 22.2117 13.2266 20.9366 16.3256C19.6616 19.4246 19.328 22.8347 19.978 26.1246C20.628 29.4145 22.2324 32.4364 24.5884 34.8083C26.9444 37.1802 29.946 38.7955 33.2139 39.4499C36.4817 40.1043 39.8689 39.7684 42.9471 38.4847C46.0253 37.2011 48.6563 35.0273 50.5074 32.2383C52.3584 29.4492 53.3464 26.1702 53.3464 22.8159C53.3416 18.3193 51.5652 14.0083 48.407 10.8288C45.2488 7.64922 40.9667 5.86082 36.5004 5.85596V5.85596ZM43.6192 24.7139L44.9038 32.4773C44.9466 32.7385 44.9157 33.0066 44.8145 33.251C44.7134 33.4953 44.5462 33.7062 44.3318 33.8596C44.1175 34.0129 43.8646 34.1025 43.6021 34.1183C43.3397 34.134 43.078 34.0752 42.8471 33.9486L36.5004 30.4563L30.1536 33.9486C29.9227 34.0752 29.6611 34.134 29.3986 34.1183C29.1361 34.1025 28.8833 34.0129 28.6689 33.8596C28.4546 33.7062 28.2873 33.4953 28.1862 33.251C28.0851 33.0066 28.0542 32.7385 28.097 32.4773L29.3815 24.7139L24.2771 19.5751C24.095 19.3915 23.9665 19.161 23.9059 18.9088C23.8452 18.6566 23.8547 18.3924 23.9333 18.1453C24.0119 17.8981 24.1565 17.6775 24.3514 17.5077C24.5463 17.3378 24.7838 17.2253 25.038 17.1823L32.6819 15.899L35.1962 9.57159C35.3002 9.30886 35.48 9.08358 35.7125 8.92486C35.945 8.76615 36.2195 8.68131 36.5004 8.68131C36.7813 8.68131 37.0557 8.76615 37.2882 8.92486C37.5207 9.08358 37.7006 9.30886 37.8045 9.57159L40.3188 15.899L47.9627 17.1823C48.2169 17.2253 48.4545 17.3378 48.6493 17.5077C48.8442 17.6775 48.9889 17.8981 49.0675 18.1453C49.1461 18.3924 49.1555 18.6566 49.0949 18.9088C49.0342 19.161 48.9058 19.3915 48.7236 19.5751L43.6192 24.7139Z" fill="#1D6392"/>
<path d="M38.3096 16.8761L36.4943 12.1453L34.679 16.8761C34.5709 17.1577 34.3949 17.4056 34.1681 17.5958C33.9413 17.7861 33.6713 17.9122 33.3841 17.9621L26.4619 19.1647L30.9128 23.8019C31.1034 24.0006 31.2457 24.2438 31.3279 24.5113C31.4102 24.7788 31.43 25.0629 31.3857 25.34L30.2637 32.3558L35.6875 29.2691C35.9365 29.1275 36.2157 29.0533 36.4994 29.0533C36.7831 29.0533 37.0622 29.1275 37.3112 29.2691L42.7351 32.3558L41.613 25.34C41.5687 25.0629 41.5886 24.7788 41.6708 24.5113C41.753 24.2438 41.8954 24.0006 42.0859 23.8019L46.5368 19.1647L39.6147 17.9621C39.3256 17.9139 39.0535 17.7885 38.8248 17.5982C38.5961 17.4079 38.4186 17.1591 38.3096 16.8761Z" fill="white"/>
<path d="M45.1855 48.3263L46.2566 49.4032C48.0352 51.4351 49.0531 54.0285 49.1345 56.7355V44.8127C47.4268 45.8166 45.6069 46.6131 43.7129 47.1857C44.2456 47.5078 44.7397 47.8905 45.1855 48.3263V48.3263Z" fill="#FF8941"/>
</svg>
